<?xml version="1.0" standalone="no"?>
<!DOCTYPE svg PUBLIC "-//W3C//DTD SVG 1.1//EN" "http://www.w3.org/Graphics/SVG/1.1/DTD/svg11.dtd" >
<!--
2013-9-30: Created.
-->
<svg>
<metadata>
Created by iconfont
</metadata>
<defs>

<font id="iconfont" horiz-adv-x="1024" >
  <font-face
    font-family="iconfont"
    font-weight="500"
    font-stretch="normal"
    units-per-em="1024"
    ascent="896"
    descent="-128"
  />
    <missing-glyph />
    
    <glyph glyph-name="home" unicode="&#58885;" d="M762.071987 256.500277c0 19.054985 15.424294 34.45165 34.307364 34.45165 19.053961 0 34.424021-15.396665 34.424021-34.45165l0-336.989057c0-19.564591-15.370059-34.704406-34.424021-34.704406l-0.789992 0L228.499669-115.193187c-19.281135 0-34.706453 15.139815-34.706453 34.704406l0 0.737804L193.793216 256.500277c0 19.054985 15.424294 34.45165 34.706453 34.45165 19.053961 0 34.70543-15.396665 34.70543-34.45165l0-302.736952 498.866888 0L762.071987 256.500277 762.071987 256.500277zM123.361097 246.719516 123.361097 246.719516l389.079436 389.533784 388.793934-389.533784c13.950733-13.21293 35.44528-13.21293 49.164746 0 13.213953 13.696953 13.213953 35.700083 0 49.13814L537.392832 708.640957l-0.51063 0.735757c-13.440104 13.213953-35.443233 13.213953-48.65514 0L74.478783 295.857657c-13.497409-13.438057-13.497409-35.441187 0-49.13814C88.145038 233.505563 109.694843 233.505563 123.361097 246.719516L123.361097 246.719516z"  horiz-adv-x="1024" />

    
    <glyph glyph-name="tubiao" unicode="&#58923;" d="M272.30208 289.52576l318.2592 318.38208 106.0864-106.12736-318.2592-318.38208L272.30208 289.52576zM696.64768 714.01472c14.6432 14.6432 38.4 14.6432 53.0432 0l53.0432-53.06368c14.6432-14.66368 14.6432-38.4 0-53.06368l-79.5648-79.58528-106.0864 106.12736L696.64768 714.01472zM210.26816 121.5488l35.30752 141.45536 106.10688-106.14784L210.26816 121.5488z"  horiz-adv-x="1024" />

    
    <glyph glyph-name="triangle-up-copy-copy" unicode="&#58892;" d="M62 158.996l450.025 449.923 449.975-449.923h-900z"  horiz-adv-x="1024" />

    
    <glyph glyph-name="shuaxin" unicode="&#58929;" d="M953.40978 133.720793l-80.272231 157.239184c-0.164752 0.303922-0.441045 0.49528-0.607844 0.799202-0.741897 1.376347-1.845021 2.450818-2.862187 3.689019-1.24127 1.543146-2.400676 3.086291-3.886517 4.298909-1.099031 0.907673-2.366907 1.486864-3.606131 2.203178-1.874697 1.100054-3.719718 2.093684-5.78782 2.753717-0.550539 0.192382-0.907673 0.576121-1.459235 0.688685-0.961908 0.248663-1.90028 0-2.892887 0.138146-1.86958 0.277316-3.743254 0.468674-5.700839 0.330528-1.899256-0.165776-3.746324-0.496304-5.536087-0.992607-0.771573-0.24764-1.598404-0.164752-2.313695-0.440022l-158.00871-59.446927c-14.491039-5.454222-21.818935-21.706371-16.447601-36.279275 5.399987-14.598486 21.572318-21.98164 36.004005-16.555048l103.165638 38.811957c-51.570539-121.233132-168.341033-201.916732-300.374138-201.916732-149.332097 0-279.93155 103.960747-317.506331 252.852822-3.830235 15.09479-19.088754 24.323988-34.019815 20.35663-14.986319-3.828188-24.023136-19.200294-20.221554-34.295084 43.938722-173.878143 196.797132-295.332309 371.747699-295.332309 153.794735 0 289.766546 93.246731 350.591867 233.544057l50.190099-98.287537c4.957919-9.724479 14.764262-15.288195 24.90318-15.288195 4.295839 0 8.729825 0.99056 12.780071 3.140527C955.091072 102.841505 960.489012 119.866251 953.40978 133.720793zM137.771295 463.266321c0.357134-0.661056 0.852414-1.213641 1.240247-1.846044 1.375324-2.231831 2.945075-4.187369 4.76349-5.894244 0.718361-0.661056 1.407046-1.213641 2.149966-1.818415 2.451842-1.847068 5.097088-3.333932 7.988951-4.297886 0.220011-0.082888 0.357134-0.249687 0.577145-0.358157 0.056282 0 0.138146 0 0.193405 0 2.563382-0.772596 5.205559-1.212618 7.907087-1.212618l0 0c0.025583 0 0.025583 0 0.055259 0 2.422166 0 4.900613 0.330528 7.381108 1.020236l159.387104 44.350091c14.902408 4.131087 23.635303 19.668968 19.528775 34.681894-4.102435 14.985296-19.528775 23.882943-34.404578 19.668968l-105.752556-29.420053c54.597479 114.264417 167.07111 187.897438 294.009174 187.897438 144.455019 0 270.345218-95.505167 313.288263-237.675144 4.519943-14.931061 20.139689-23.249517 34.933627-18.786878 14.762215 4.544503 23.083741 20.301372 18.593474 35.20378-50.16554 166.080549-197.59531 277.674137-366.815363 277.674137-147.377582 0-278.060947-84.569094-342.520027-215.995379l-45.839001 96.964402c-6.639211 14.105253-23.38664 20.054755-37.270858 13.33368-13.96506-6.667863-19.862373-23.526833-13.250792-37.57478l73.385381-155.254993C137.46942 463.678714 137.659755 463.514985 137.771295 463.266321z"  horiz-adv-x="1024" />

    
    <glyph glyph-name="shuangren" unicode="&#58993;" d="M716.553216 101.21216l-175.704064 97.031168c28.84096 23.604224 49.82272 55.067648 62.936064 95.277056 13.113344 40.2176 20.104192 78.671872 20.104192 114.512896V526.046208c3.500032 75.172864-108.3904 167.835648-208.9216 165.213184-103.145472 0-210.66752-86.540288-210.66752-165.213184v-118.012928c0-32.340992 6.990848-69.926912 21.850112-111.012864 14.86848-41.085952 36.717568-74.304512 66.436096-97.89952l-180.948992-97.908736-13.104128-6.990848c-10.49088-6.122496-34.095104-25.350144-34.095104-40.208384v-70.812672c0-27.09504 21.850112-47.200256 47.200256-47.200256h604.914688c25.350144 0 47.200256 20.104192 47.200256 47.200256v70.812672c0 21.850112-34.963456 41.954304-44.576768 45.454336l-2.623488 1.744896z m-8.74496-109.267968H120.383488v49.82272c4.368384 3.500032 9.613312 6.122496 13.990912 7.868416l3.490816 1.754112 180.948992 98.777088c15.735808 6.11328 28.850176 27.09504 28.850176 43.708416 1.74592 20.104192-5.244928 35.841024-20.104192 48.945152-47.208448 36.717568-67.313664 121.51296-67.313664 165.213184V526.046208c0 21.850112 16.60416 45.454336 48.954368 70.80448 33.217536 25.350144 68.180992 38.463488 105.767936 38.463488 38.463488 0 73.426944-12.2368 104.899584-37.58592 32.340992-25.350144 48.0768-48.954368 48.0768-71.681024v-118.012928c0-28.84096-5.244928-59.436032-14.859264-91.78624-9.613312-32.340992-25.350144-56.813568-47.208448-73.426944-15.727616-13.104128-22.726656-28.84096-20.972544-48.945152 1.74592-20.104192 11.359232-34.972672 28.84096-44.585984l175.704064-97.031168 5.244928-2.622464c4.368384-1.74592 8.74496-4.368384 13.113344-7.868416v-49.823744z m204.553216 248.25344l-178.326528 97.908736c63.813632 51.576832 85.663744 152.098816 85.663744 208.9216V665.032704c0 77.804544-106.64448 166.967296-211.544064 166.967296-65.558528 0-135.494656-35.841024-177.44896-84.795392 22.72768 0 48.954368-1.74592 70.80448-7.868416 31.47264 23.604224 67.313664 35.841024 106.64448 35.841024 38.463488 0 74.304512-13.113344 106.64448-38.463488 32.350208-25.350144 48.954368-48.954368 48.954368-71.681024v-118.003712c0-27.104256-5.244928-57.699328-16.60416-90.917888-10.49088-32.340992-26.226688-57.691136-48.086016-74.295296-15.727616-12.2368-22.726656-28.850176-20.972544-48.954368 0-18.359296 13.113344-34.095104 28.84096-44.585984l178.326528-97.021952 18.359296-9.622528v-49.82272H790.848512c18.359296-13.981696 21.859328-30.595072 28.850176-55.945216h92.662784c27.09504 0 47.200256 20.104192 47.200256 47.200256v69.936128c0 16.60416-19.227648 34.095104-35.841024 41.954304l-11.359232 5.243904z"  horiz-adv-x="1024" />

    
    <glyph glyph-name="shuaxin1" unicode="&#58894;" d="M1020.416 120.32l-91.648 177.664c0 0.512-0.512 0.512-0.512 1.024s-0.512 1.024-1.024 1.536c-0.512 0.512-0.512 1.024-1.024 1.536l-1.024 1.024c-0.512 0.512-1.024 1.024-1.024 1.536-0.512 0.512-0.512 0.512-0.512 1.024l-1.536 1.536c-0.512 0-0.512 0.512-1.024 1.024l-1.536 1.536-0.512 0.512c-1.024 0.512-1.536 1.024-2.56 1.536-0.512 0-0.512 0.512-1.024 0.512-0.512 0.512-1.536 0.512-2.048 1.024-0.512 0-0.512 0.512-1.024 0.512-0.512 0.512-1.536 0.512-2.048 1.024-0.512 0-0.512 0-1.024 0.512-0.512 0-1.536 0.512-2.048 0.512h-0.512-0.512c-0.512 0-1.536 0.512-2.048 0.512h-6.144c-4.096 0-8.192-1.024-12.288-2.56l-179.712-67.072c-17.408-6.656-26.112-25.6-19.456-43.008 6.656-17.408 25.6-26.112 43.008-19.456l114.176 42.496c-59.392-134.656-190.976-223.744-339.456-223.744-169.472 0-317.952 117.248-360.448 284.672-4.608 17.92-23.04 28.672-40.96 24.064-17.92-4.608-28.672-23.04-24.064-40.96 50.176-197.12 225.28-335.36 425.472-335.36 175.104 0 329.728 104.448 399.872 262.144l55.808-108.032c6.144-11.776 17.408-17.92 29.696-17.92 5.12 0 10.24 1.024 15.36 3.584 17.408 8.192 23.552 28.672 15.36 45.056zM87.04 491.52c0.512-1.024 1.024-2.56 2.048-3.584 0 0 0-0.512 0.512-0.512 0.512-1.024 1.536-2.048 2.048-3.072l1.024-1.024c1.024-1.024 1.536-2.048 2.56-2.56 1.024-1.024 2.048-1.536 3.584-2.56 0.512 0 0.512-0.512 1.024-0.512l3.072-1.536c0.512 0 0.512-0.512 1.024-0.512 1.024-0.512 2.56-1.024 3.584-1.536 1.024-0.512 2.048-0.512 3.072-0.512 0.512 0 1.024-0.512 1.536-0.512h1.024c1.536 0 2.56-0.512 4.096-0.512h1.024c1.024 0 2.56 0 3.584 0.512 0.512 0 1.536 0.512 2.048 0.512 0.512 0 1.536 0 2.048 0.512l181.76 50.176c17.92 5.12 28.16 23.552 23.552 40.96-5.12 17.92-23.552 28.16-40.96 23.552l-117.248-32.256c62.464 126.976 189.44 208.384 332.288 208.384 163.84 0 307.2-107.52 355.84-267.776 5.632-17.92 24.064-27.648 41.984-22.528 17.92 5.632 27.648 24.064 22.528 41.984-57.344 188.416-226.304 314.88-419.84 314.88-167.424 0-316.416-94.72-390.656-242.176l-50.688 106.496C56.32 712.704 36.352 719.36 19.968 711.68 3.072 703.488-3.584 683.52 4.096 667.136L87.04 492.032v-0.512z"  horiz-adv-x="1024" />

    
    <glyph glyph-name="sanjiaoxing-copy" unicode="&#58637;" d="M230.588 496.518h562.824l-281.412-337.514z"  horiz-adv-x="1024" />

    
    <glyph glyph-name="sousuo" unicode="&#58627;" d="M222.6944 673.2032A323.1488 323.1488 0 0 1 133.6832 384c19.2512 87.3728 64.512 172.7488 135.0144 243.3024C339.2512 697.8815999999999 424.6272 743.1168 512 762.3679999999999c-101.632 19.1488-210.688-10.5216-289.3056-89.1648zM989.44 73.88160000000005l-121.7024 121.7024a118.016 118.016 0 0 1-92.8 34.1248c114.4576 165.5552 97.92 394.3936-49.4848 541.824-165.9392 165.9904-435.0464 165.9904-601.0368 0-165.9392-165.9904-165.9392-435.1232 0-601.1136 147.4048-147.4304 376.064-163.84 541.7216-49.3824-2.56-33.28 8.8576-67.5328 34.1248-92.8l121.7024-121.728c46.08-45.9776 121.3696-45.9776 167.3472 0 46.208 45.9776 46.208 121.2928 0.128 167.3728zM676.096 219.904c-138.6752-138.6752-363.392-138.6752-502.016 0-138.6752 138.6752-138.6752 363.4432 0 502.1184 138.624 138.6752 363.3408 138.6752 502.016 0 138.6496-138.5728 138.6496-363.4432 0-502.1184z"  horiz-adv-x="1024" />

    
    <glyph glyph-name="triangle-copy" unicode="&#58970;" d="M933.875 573.608l-421.898-421.803-421.852 421.803 843.75 0z"  horiz-adv-x="1024" />

    
    <glyph glyph-name="gongyu" unicode="&#58913;" d="M805.888 91.64800000000002v491.52H635.52V714.24H242.304v-622.592H170.24v-39.296h681.6v39.296h-45.952zM602.752 674.944v-583.296H281.6V674.944h321.152z m0 0M321.024 439.04h104.832v-39.296h-104.832V439.04z m137.6-144.256h104.832v-39.296h-104.832v39.296zM321.024 583.168h104.832v-39.296h-104.832v39.296z m0 0M651.52 545.28h124.16v-453.12h-124.16zM458.624 583.168h104.832v-39.296h-104.832v39.296z m0-144.128h104.832v-39.296h-104.832V439.04z m240.768-137.856H732.16v-111.36h-32.768v111.36z m0 157.312H732.16V340.48h-32.768v118.016zM321.024 294.784h104.832v-39.296h-104.832v39.296z m0 0"  horiz-adv-x="1024" />

    
    <glyph glyph-name="xiazai" unicode="&#58900;" d="M512-128C230.4-128 0 102.39999999999998 0 384S230.4 896 512 896s512-230.4 512-512-230.4-512-512-512z m0 64c249.6 0 448 198.4 448 448S761.6 832 512 832 64 633.6 64 384s198.4-448 448-448z m0 0M303 146.39999999999998c-15.8 0-28.7 12.9-28.7 28.7 0 15.8 12.9 28.7 28.7 28.7h418c15.8 0 28.7-12.9 28.7-28.7 0-15.8-12.9-28.7-28.7-28.7H303z m209 95.9c-7.5 0-14.9 3.1-20.2 8.4L344 398.6c-10.7 11.1-10.6 29.1 0.4 40.1 5.4 5.4 12.6 8.4 20.3 8.4 7.5 0 14.5-2.9 19.9-8l88.3-88.2c1.2-1.2 2.8-1.8 4.4-1.8 0.8 0 1.6 0.2 2.4 0.5 2.3 1 3.8 3.2 3.8 5.7V593c0 15.8 12.9 28.7 28.7 28.7 15.8 0 28.7-12.9 28.7-28.7v-237.8c0-2.5 1.5-4.7 3.8-5.7 0.8-0.3 1.6-0.5 2.4-0.5 1.6 0 3.2 0.6 4.4 1.8l88.3 88.3c5.3 5.1 12.4 8 19.8 8 7.7 0 14.9-3 20.3-8.4 11-11 11.1-29 0.3-40.2L532.3 250.79999999999995c-5.4-5.4-12.7-8.5-20.3-8.5z"  horiz-adv-x="1024" />

    
    <glyph glyph-name="gongyuloux-" unicode="&#58895;" d="M924.444444 14.222222H910.222222V526.222222a30.72 30.72 0 0 1-28.444444 28.444445h-227.555556V782.222222a28.444444 28.444444 0 0 1-28.444444 28.444445H142.222222a28.444444 28.444444 0 0 1-28.444444-28.444445v-768h-14.222222a42.666667 42.666667 0 0 1 0-85.333333h824.888888a42.666667 42.666667 0 0 1 0 85.333333zM341.333333 640a28.444444 28.444444 0 0 0 28.444445 28.444444h56.888889a28.444444 28.444444 0 0 0 28.444444-28.444444v-56.888889a28.444444 28.444444 0 0 0-28.444444-28.444444h-56.888889a28.444444 28.444444 0 0 0-28.444445 28.444444z m0-227.555556a28.444444 28.444444 0 0 0 28.444445 28.444445h56.888889a28.444444 28.444444 0 0 0 28.444444-28.444445v-56.888888a28.444444 28.444444 0 0 0-28.444444-28.444445h-56.888889a28.444444 28.444444 0 0 0-28.444445 28.444445z m170.666667-369.777777h-227.555556v142.222222a28.444444 28.444444 0 0 0 28.444445 28.444444h170.666667a28.444444 28.444444 0 0 0 28.444444-28.444444z m284.444444 312.888889a28.444444 28.444444 0 0 0-28.444444-28.444445h-56.888889a28.444444 28.444444 0 0 0-28.444444 28.444445v56.888888a28.444444 28.444444 0 0 0 28.444444 28.444445h56.888889a28.444444 28.444444 0 0 0 28.444444-28.444445z"  horiz-adv-x="1024" />

    
    <glyph glyph-name="laba" unicode="&#58949;" d="M548.49663 7.130538c-6.446371 0-12.892743 1.946074-18.366077 5.959853L297.696297 182.033971l36.610524 50.354674 183.052619-132.941205V663.079226L293.31763 479.540088c-5.838223-4.743556-13.62252-7.541038-20.79867-6.93289l-128.927426 4.135408v-234.745219L227.394361 236.767312l-3.770519-62.03112-112.993942 6.93289c-16.420002 1.094667-29.191115 14.595558-29.191116 31.01556V508.974463c0 8.392446 3.40563 16.541632 9.487113 22.379855 6.081482 5.838223 13.987409 9.730372 22.623114 8.757334l149.361207-4.865186 265.760779 217.595439c9.365483 7.662668 22.258225 9.243853 33.083264 4.013779 10.946668-5.108445 17.757928-16.055113 17.757929-28.096449v-690.491507c0-11.676446-6.568001-22.379855-17.028151-27.73156-4.378667-2.310963-9.122224-3.40563-13.987409-3.40563zM800.02674 86.676327l-41.597339 46.340896c82.82979 74.194085 123.697351 152.158689 121.751277 231.947737-3.40563 129.413945-119.318684 224.528329-120.534981 225.501366l39.043117 48.530229c5.716593-4.500297 139.265946-113.480461 143.766243-271.963891 2.675852-98.884903-45.246229-193.269509-142.428317-280.356337zM719.143025 161.356931l-44.516451 43.543413c156.172467 159.821356 6.689631 311.615156 0.364889 317.939898l43.908303 44.273192c69.572158-69.207269 159.334838-242.894406 0.243259-405.756503z"  horiz-adv-x="1024" />

    
    <glyph glyph-name="qianbi" unicode="&#58963;" d="M87.43936 49.46944L54.4256-81.6128l130.06848 36.9664 120.92416 34.3552-187.24864 181.83168-30.73024-122.07104zM846.66368 836.52096c-25.53344 24.81664-66.3552 24.19712-91.30496-1.40288l-61.92128-63.744 194.304-188.35968 61.78816 63.5136c24.81664 25.6 24.36096 66.4832-1.31072 91.30496l-101.43232 98.56-0.12288 0.128zM354.04288 32.61952L159.77472 220.9792l488.86272 504.04864 194.24256-188.35968-488.83712-504.04864z"  horiz-adv-x="1024" />

    
    <glyph glyph-name="fangchanguanli-" unicode="&#59013;" d="M918.88 431.52H656.96c-23.68 0-46.56-9.44-63.36-26.24a89.4784 89.4784 0 0 1-26.24-63.36v-446.4h171.04v300.8h99.04v-300.8h171.04v446.4c0 49.6-40.16 89.6-89.6 89.6zM728.64 476.16V764.96l57.6 15.36c23.68 6.4 37.6 30.56 31.36 54.24-6.4 23.84-31.2 37.92-54.88 31.2L52.8 663.04c-23.68-6.72-37.44-31.2-31.2-54.88 6.4-24 31.2-38.24 55.2-31.84l78.88 21.12V297.6H123.36c-49.44 0-89.44-40-89.44-89.44v-312.48h488.8V342.24s0 133.92 133.92 133.92h72zM437.76 507.2c-23.36 0-42.72 20.64-44 45.28 1.28 24.64 20.64 44 45.28 44s44-20.64 44-45.28S462.4 507.2 437.76 507.2z"  horiz-adv-x="1024" />

    
    <glyph glyph-name="home1" unicode="&#59102;" d="M58.887 477.845a29.4 29.4 0 1 0-34.574 47.51L470.84 850.343a173.107 173.107 0 0 0 205.33-0.588l441.176-324.4a29.4 29.4 0 0 0-34.81-47.393L641.36 802.421a114.366 114.366 0 0 1-135.946 0.353L58.887 477.844zM953 442.388a29.4 29.4 0 1 0 58.8 0v-473.046c0-45.276-35.986-82.32-80.85-82.32h-720.3c-44.864 0-80.85 37.044-80.85 82.32V442.8a29.4 29.4 0 0 0 58.8 0v-473.458c0-13.17 10.055-23.52 22.05-23.52h720.3c11.995 0 22.05 10.35 22.05 23.52V442.388z"  horiz-adv-x="1129" />

    
    <glyph glyph-name="shoufeizhan" unicode="&#58890;" d="M958.3 784.7c0 24.4-20 44.4-44.4 44.4H102.7c-24.4 0-44.4-20-44.4-44.4v-811.1c0-24.4 20-44.4 44.4-44.4h811.1c24.4 0 44.4 20 44.4 44.4V170.7c0 13.5-10.9 24.4-24.4 24.4h-51.1c-13.5 0-24.4-10.9-24.4-24.4v-117.1c0-13.5-10.9-24.4-24.4-24.4H182.7c-13.5 0-24.4 10.9-24.4 24.4V704.7c0 13.5 10.9 24.4 24.4 24.4h651.1c13.5 0 24.4-10.9 24.4-24.4v-117.1c0-13.5 10.9-24.4 24.4-24.4h51.1c13.5 0 24.4 10.9 24.4 24.4V784.7zM653 525.4c0.1 77.4-62.7 140.2-140.1 140.1-76.1-0.1-139.8-63.8-139.9-139.9-0.1-77.4 62.7-140.2 140.1-140.1 76.1 0.1 139.8 63.8 139.9 139.9zM300 233.5v-114c0-11 9-20 20-20h386c11 0 20 9 20 20v112h54.5c11 0 20 9 20 20v61c0 22.6-18.4 41-41 41h-145c-1 0-2.1-0.1-3.1-0.1-1.8 0.1-3.6 0.1-5.4 0.1H420c-66 0-120-54-120-120zM917.3 486.8c-7.8 7.8-20.4 7.9-28.3 0.1l-71-70.5c-7.8-7.8-7.9-20.4-0.1-28.3l57.8-58.2c7.8-7.8 20.4-7.9 28.3-0.1l70.9 70.5c7.8 7.8 7.9 20.4 0.1 28.3l-57.7 58.2z"  horiz-adv-x="1024" />

    
    <glyph glyph-name="xiaoyu" unicode="&#58688;" d="M920.410112 427.742208L0 53.015552l30.425088-74.728448L950.834176 353.01376l76.002304 32.59392zM920.410112 340.257792L0 714.984448l30.425088 74.728448L950.834176 414.98624l-13.372416-32.8448z"  horiz-adv-x="1026" />

    
    <glyph glyph-name="dayu" unicode="&#58660;" d="M991.26234075 36.416474079999944l-813.37457778 308.86874074 813.37457778 386.17694815L991.26234075 853.67466667l-956.09742223-454.14020742L35.16491852 277.56468148 991.26234075-85.67466666999997z"  horiz-adv-x="1024" />

    
    <glyph glyph-name="icon--" unicode="&#59589;" d="M991.488 167.01440000000002a26.1632 26.1632 0 0 0 26.7776-25.6v-25.6a26.1632 26.1632 0 0 0-26.7776-25.6H885.76v-87.04a7.9872 7.9872 0 0 0-7.9872-7.9872h-64a7.9872 7.9872 0 0 0-7.9872 7.9872v87.04h-110.6432a26.1632 26.1632 0 0 0-26.7776 25.6v25.6a26.1632 26.1632 0 0 0 26.7776 25.6h110.6432v50.7392h-110.6432a26.1632 26.1632 0 0 0-26.7776 25.6v25.6a26.1632 26.1632 0 0 0 26.7776 25.6h296.96a26.1632 26.1632 0 0 0 26.7776-25.6v-25.6a26.1632 26.1632 0 0 0-26.7776-25.6h-105.984v-50.7392z m-101.888 138.24a51.2 51.2 0 0 0-37.2736-7.7824 51.2 51.2 0 0 0-46.592 6.7072l-120.5248 89.8048a26.88 26.88 0 0 0-7.5776 37.9392 30.72 30.72 0 0 0 7.5776 7.2704 53.4528 53.4528 0 0 0 59.9552 0l103.6288-77.5168L947.8656 435.2c17.4592 12.288 40.96 17.408 58.2144 5.12a25.6 25.6 0 0 0 6.9632-36.2496 26.0096 26.0096 0 0 0-6.9632-6.7072z m-380.8256-218.5216a474.0608 474.0608 0 0 0-60.5696 18.944l-39.0144 12.8v-99.8912a20.48 20.48 0 0 0-20.48-20.48H25.6a20.48 20.48 0 0 0-20.48 20.48V359.93600000000004c0.5632 55.1936 48.3328 99.2256 105.984 98.7136h211.968a106.0352 106.0352 0 0 0 98.4064-62.464c1.7408-1.1264 4.096-1.6896 5.8368-2.7648l58.8288-97.024c55.9104-14.4896 131.0208-46.848 131.0208-122.88 0-49.6128-55.296-87.04-108.288-87.04z m-291.84 420.9664C131.4816 509.952 64.512 578.56 66.8672 659.9168S140.8 805.9904 225.792 803.84c83.8656-2.2528 150.2208-68.0448 150.2208-148.48-0.5632-82.5344-72.192-148.8896-158.72-147.7632z"  horiz-adv-x="1024" />

    
    <glyph glyph-name="laba1" unicode="&#58625;" d="M215.3 221.39999999999998c-38.9 0-75.9 10.4-104.1 29.3-30.6 20.5-47.5 48.5-47.5 78.9V438c0 30.3 16.9 58.3 47.5 78.9 28.2 18.9 65.1 29.3 104.1 29.3 11 0 20-9 20-20s-9-20-20-20c-30.6 0-60.4-8.2-81.8-22.5-19.2-12.9-29.8-29.1-29.8-45.6v-108.4c0-16.6 10.6-32.8 29.8-45.6 21.4-14.3 51.2-22.5 81.8-22.5 11 0 20-9 20-20s-9-20.2-20-20.2zM554.3 701.8c15.3 0 31.9-11 31.9-28.9v-575.4c0-17.8-16.5-28.9-31.9-28.9-5.4 0-10.7 1.3-15.7 3.9l-265 137.3c-9.9 5.1-16 14.7-16 25V530.9c0 10.1 6 19.6 15.6 24.8l265 142c5.1 2.7 10.5 4.1 16.1 4.1m0 40c-11.7 0-23.6-2.8-35-8.9l-265-142c-22.7-12.2-36.7-35.1-36.7-60v-296.1c0-25.2 14.4-48.5 37.6-60.5l265-137.3c11.1-5.8 22.7-8.4 34.1-8.4 37.6 0 71.9 28.9 71.9 68.9V672.9c0 40.1-34.3 68.9-71.9 68.9zM705.3 190c-7.1 0-14 3.8-17.6 10.5-5.2 9.7-1.6 21.9 8.1 27.1 59.1 31.9 95.8 91 95.8 154.2 0 66.2-39.3 126.6-102.5 157.7-9.9 4.9-14 16.9-9.1 26.8 4.9 9.9 16.9 14 26.8 9.1 77-37.8 124.8-112 124.8-193.6 0-39.2-11.2-77.7-32.4-111.3-20.4-32.4-49.6-59.4-84.4-78.2-3.1-1.5-6.3-2.3-9.5-2.3zM797.6 98.10000000000002c-6.7 0-13.3 3.4-17.1 9.6-5.8 9.4-2.8 21.7 6.6 27.5 82.4 50.5 133.6 144.6 133.6 245.6 0 105.7-54.7 201.9-142.8 251-9.6 5.4-13.1 17.6-7.7 27.2 5.4 9.6 17.6 13.1 27.2 7.7 100.7-56.2 163.3-165.8 163.3-286 0-57.6-14.5-114.1-42-163.5-26.7-48.1-65-88.3-110.7-116.2-3.2-1.9-6.8-2.9-10.4-2.9z"  horiz-adv-x="1024" />

    
    <glyph glyph-name="delete" unicode="&#58626;" d="M512 275.456l253.3376-253.3376a76.6976 76.6976 0 1 1 108.544 108.544L620.6464 384l253.2352 253.3376a76.6976 76.6976 0 1 1-108.544 108.544L512 492.6464 258.6624 745.8815999999999a76.6976 76.6976 0 1 1-108.544-108.544L403.3536 384 150.1184 130.66240000000005a76.6976 76.6976 0 1 1 108.544-108.544L512 275.35360000000003z"  horiz-adv-x="1024" />

    
    <glyph glyph-name="yezhuxinxiguanli" unicode="&#58912;" d="M512 384a170.667 170.667 0 1 0 0 341.333A170.667 170.667 0 0 0 512 384z m129.11-22.23l-84.097-63.103v-256H130.347A384.043 384.043 0 0 0 641.109 361.77z m169.557-319.103V149.333a21.333 21.333 0 0 1-21.334 21.334h-42.666a21.333 21.333 0 0 1-21.334-21.334v-106.666H618.667A21.333 21.333 0 0 0 597.333 64V234.667A42.667 42.667 0 0 0 614.4 268.8l140.8 105.6a21.333 21.333 0 0 0 25.6 0l140.8-105.6a42.667 42.667 0 0 0 17.067-34.133V64a21.333 21.333 0 0 0-21.334-21.333H810.667z"  horiz-adv-x="1024" />

    
    <glyph glyph-name="p" unicode="&#59375;" d="M512-128C229.239467-128 0 101.239467 0 384 0 666.760533 229.239467 896 512 896c282.760533 0 512-229.239467 512-512 0-282.760533-229.239467-512-512-512z m0 68.266667c245.009067 0 443.733333 198.587733 443.733333 443.733333S757.0432 827.733333 512 827.733333 68.266667 629.0432 68.266667 384s198.724267-443.733333 443.733333-443.733333zM531.012267 280.917333c62.805333-1.877333 115.2 13.824 157.0816 47.104C729.975467 361.2672 750.933333 404.6848 750.933333 458.274133c0 52.906667-17.92 93.525333-53.725866 121.992534C661.367467 608.699733 611.0208 622.933333 546.133333 622.933333h-170.666666v-546.133333h77.585066v204.117333h77.960534zM518.621867 554.666667C605.184 554.666667 648.533333 521.6256 648.533333 455.5776c0-34.030933-11.605333-60.142933-34.884266-78.370133-23.210667-18.2272-57.2416-27.3408-102.024534-27.3408H443.733333v204.8h74.888534z"  horiz-adv-x="1024" />

    
    <glyph glyph-name="tixing" unicode="&#58945;" d="M980.224 102.272c-53.568 0-113.28 80-113.28 194.816V483.584c0 162.432-136.768 296.576-312.448 315.648V857.088c0 21.184-19.2 38.4-42.88 38.4-23.616 0-42.816-17.216-42.816-38.4v-57.856C293.12 780.16 156.352 646.016 156.352 483.584v-186.496c0-114.752-59.712-194.816-113.28-194.816-23.68 0-42.88-17.216-42.88-38.4 0-21.12 19.2-38.336 42.88-38.336h272.384c13.888-87.616 97.472-152.768 196.288-153.024 100.032 0 182.336 66.752 196.16 153.024h272.448c23.68 0 42.88 17.28 42.816 38.4 0 21.184-19.2 38.4-42.88 38.336zM242.048 296.96V483.584c0 133.184 120.96 241.472 269.632 241.472 148.608 0 269.568-108.352 269.568-241.472v-186.496c0-77.312 22.592-145.856 59.392-194.816H182.656c36.736 48.96 59.392 117.504 59.392 194.752z m269.632-347.84c-51.648 0.128-96.64 31.488-109.44 76.288h218.88c-12.864-44.8-57.856-76.16-109.44-76.288z"  horiz-adv-x="1024" />

    
    <glyph glyph-name="search" unicode="&#58628;" d="M240.776 655.1279999999999A302.952 302.952 0 0 1 157.328 384c18.048 81.912 60.48 161.952 126.576 228.096C350.048 678.264 430.088 720.672 512 738.72c-95.28 17.952-197.52-9.864-271.224-83.592zM959.6 93.26400000000001l-114.096 114.096a110.64 110.64 0 0 1-87 31.992c107.304 155.208 91.8 369.744-46.392 507.96-155.568 155.616-407.856 155.616-563.472 0-155.568-155.616-155.568-407.928 0-563.544 138.192-138.216 352.56-153.6 507.864-46.296-2.4-31.2 8.304-63.312 31.992-87l114.096-114.12c43.2-43.104 113.784-43.104 156.888 0 43.32 43.104 43.32 113.712 0.12 156.912zM665.84 230.15999999999997c-130.008-130.008-340.68-130.008-470.64 0-130.008 130.008-130.008 340.728 0 470.736 129.96 130.008 340.632 130.008 470.64 0 129.984-129.912 129.984-340.728 0-470.736z"  horiz-adv-x="1024" />

    
    <glyph glyph-name="add-sy" unicode="&#58629;" d="M512.277-58.412000000000035c-118.89 0-230.659 46.078-314.73 129.73S67.12 266.33399999999995 67.12 384.778s46.327 229.744 130.398 313.427 195.82 129.73 314.73 129.73 230.659-46.078 314.72-129.73S957.397 503.19 957.397 384.817 911.078 155.03999999999996 826.97 71.35799999999995s-195.8-129.77-314.692-129.77z m0 822.784c-101.972 0-197.809-39.494-269.865-111.222s-111.7-166.997-111.7-268.373 39.653-196.695 111.67-268.335S410.246 5.220000000000027 512.248 5.220000000000027s197.809 39.484 269.865 111.222 111.7 166.998 111.67 268.374c-0.03 101.375-39.654 196.665-111.67 268.303S614.22 764.3720000000001 512.277 764.3720000000001z m222.585-347.8H544.073V607.36c-0.76 17.561-15.613 31.18-33.173 30.419-16.495-0.714-29.704-13.924-30.419-30.419v-190.787H289.703c-17.56-0.761-31.179-15.614-30.419-33.174 0.715-16.494 13.924-29.703 30.42-30.418H480.48v-190.788c0.761-17.56 15.614-31.179 33.174-30.419 16.494 0.715 29.703 13.925 30.418 30.42V352.98h190.788c17.56-0.762 32.413 12.857 33.173 30.418 0.762 17.561-12.858 32.414-30.419 33.174a31.683 31.683 0 0 1-2.753 0z"  horiz-adv-x="1028" />

    
    <glyph glyph-name="kefu" unicode="&#58886;" d="M619.956704 764.619426c-158.868524 0-287.588974-126.060326-287.588974-281.529803S461.08818 201.559821 619.956704 201.559821s287.588974 126.060326 287.588974 281.529802S778.825227 764.619426 619.956704 764.619426z m0 0M287.884543 374.911243V634.864483c-3.694617 0-7.241449-0.147785-10.788281-0.443354 58.8183 127.981527 190.198874 217.095685 342.860442 217.095684 152.809352 0 284.042142-89.114158 343.008226-217.095684-3.546832 0.295569-7.241449 0.443354-10.788281 0.443354v-259.95324c73.301198 0 132.858421 58.227161 132.858421 130.050512 0 48.768942-27.487949 91.183143-67.98095 113.498629-57.192668 160.789724-213.105499 276.357339-397.097416 276.357339s-339.904748-115.567614-396.949632-276.505124c-40.640785-22.315486-67.98095-64.729687-67.98095-113.498629 0-71.675566 59.409439-129.902728 132.858421-129.902727z m0 0M906.954539 225.944292c-75.222399-68.719873-176.011546-110.69072-286.997835-110.69072-110.69072 0-211.479867 41.823062-286.554481 110.395151-134.484053-67.68538-222.711502-188.277674-222.711503-352.023092h1022.078799c0 163.893202-90.000866 284.63328-225.81498 352.318661z m0 0"  horiz-adv-x="1319" />

    
    <glyph glyph-name="trash-can-outline" unicode="&#59080;" d="M384 768v-42.666667H170.666667v-85.333333h42.666666v-554.666667a85.333333 85.333333 0 0 1 85.333334-85.333333h426.666666a85.333333 85.333333 0 0 1 85.333334 85.333333V640h42.666666V725.333333h-213.333333V768H384M298.666667 640h426.666666v-554.666667H298.666667V640m85.333333-85.333333v-384h85.333333V554.666667H384m170.666667 0v-384h85.333333V554.666667h-85.333333z"  horiz-adv-x="1024" />

    
    <glyph glyph-name="lingdang" unicode="&#58888;" d="M512 640c117.632 0 213.333-95.701 213.333-213.333v-149.334a64.057 64.057 0 0 1 12.8-38.4l51.2-68.266H234.667l51.2 68.266a64.057 64.057 0 0 1 12.8 38.4V426.667C298.667 544.299 394.368 640 512 640m0 64c-153.173 0-277.333-124.16-277.333-277.333v-149.334l-64-85.333v-42.667c0-23.466 19.2-42.666 42.666-42.666h597.334c23.466 0 42.666 19.2 42.666 42.666V192l-64 85.333V426.667C789.333 579.84 665.173 704 512 704z m0-661.333a64 64 0 0 0-64 64h-64c0-70.571 57.43-128 128-128s128 57.429 128 128h-64a64 64 0 0 0-64-64zM512 640a42.667 42.667 0 1 0-0.021 85.312A42.667 42.667 0 0 0 512 640h97.621a105.963 105.963 0 0 1 9.046 42.667c0 58.816-47.851 106.666-106.667 106.666s-106.667-47.85-106.667-106.666c0-15.19 3.307-29.568 9.046-42.667H512z"  horiz-adv-x="1024" />

    
    <glyph glyph-name="shezhi" unicode="&#58664;" d="M881 384c0 52.4 32.9 96.8 79 114.5-11 43.2-28 83.9-50.2 121.3C864.6 599.7 810 607.9 773 645c-37 37-45.2 91.7-25.1 136.8C710.4 804 669.7 821 626.5 832c-17.8-46.1-62.2-79-114.5-79-52.4 0-96.8 32.9-114.5 79-43.2-11-83.9-28-121.3-50.2 20.1-45.2 11.9-99.8-25.1-136.8-37-37-91.7-45.2-136.8-25.2C92 582.4 75 541.7 64 498.5c46.1-17.8 79-62.2 79-114.5 0-52.4-32.9-96.8-79-114.5 11-43.2 28-83.9 50.2-121.3C159.4 168.3 214 160.1 251 123c37-37 45.2-91.7 25.1-136.8C313.6-36 354.3-53 397.5-64c17.8 46.1 62.2 79 114.5 79 52.4 0 96.8-32.9 114.5-79 43.2 11 83.9 28 121.3 50.2-20.1 45.2-11.9 99.8 25.1 136.8 37 37 91.7 45.2 136.8 25.2C932 185.6 949 226.3 960 269.5c-46.1 17.7-79 62.1-79 114.5zM512 261c-67.9 0-123 55.1-123 123s55.1 123 123 123 123-55.1 123-123-55.1-123-123-123z"  horiz-adv-x="1024" />

    
    <glyph glyph-name="zichanguanli" unicode="&#58887;" d="M766.681-1.999H257.518c-27.086 0-53.134 13.46-71.465 36.929-16.777 21.479-26.016 49.502-26.016 78.906V362.879h64v-249.043c0-30.547 17.645-51.835 33.481-51.835h509.163c15.836 0 33.48 21.288 33.48 51.835V368h64v-254.164c0-29.404-9.239-57.427-26.016-78.906-18.33-23.469-44.378-36.929-71.464-36.929zM192.064 335.877c-9.956 0-19.766 4.631-26.017 13.334-10.31 14.354-7.032 34.348 7.322 44.658l320.063 229.895c14.354 10.312 34.349 7.032 44.659-7.322 10.311-14.354 7.032-34.349-7.322-44.659L210.706 341.889a31.858 31.858 0 0 0-18.642-6.012zM833.073 336.877a31.85 31.85 0 0 0-18.642 6.012L494.369 572.784c-14.354 10.31-17.632 30.305-7.322 44.659 10.311 14.354 30.307 17.631 44.658 7.322L851.768 394.87c14.354-10.31 17.633-30.305 7.322-44.658-6.251-8.704-16.063-13.335-26.017-13.335zM98.029 398.571c-9.74 0-19.357 4.429-25.643 12.826-10.59 14.148-7.706 34.203 6.442 44.794l415.875 311.294c14.147 10.589 34.203 7.707 44.794-6.442 10.591-14.148 7.706-34.203-6.442-44.794L117.18 404.955a31.86 31.86 0 0 0-19.151-6.384zM929.732 398.571a31.853 31.853 0 0 0-19.151 6.384L494.707 716.249c-14.148 10.591-17.033 30.646-6.442 44.794 10.591 14.149 30.646 17.032 44.794 6.442l415.874-311.294c14.148-10.591 17.033-30.646 6.442-44.794-6.285-8.397-15.904-12.826-25.643-12.826zM512.1 104c-17.673 0-32 14.327-32 32V271.035c0 17.673 14.327 32 32 32 17.673 0 32-14.327 32-32V136c0-17.673-14.328-32-32-32zM607 268.5H418c-12.426 0-22.5 10.073-22.5 22.5s10.074 22.5 22.5 22.5h189c12.427 0 22.5-10.073 22.5-22.5s-10.073-22.5-22.5-22.5z m1-82H419c-12.426 0-22.5 10.073-22.5 22.5s10.074 22.5 22.5 22.5h189c12.427 0 22.5-10.073 22.5-22.5s-10.073-22.5-22.5-22.5zM512.128 257.951c-10.179 0-20.187 4.846-26.392 13.866l-64.013 93.047c-10.017 14.56-6.333 34.483 8.227 44.5 14.561 10.015 34.484 6.333 44.501-8.227l64.012-93.047c10.018-14.56 6.334-34.483-8.227-44.5a31.852 31.852 0 0 0-18.108-5.639zM518.059 255.951a31.841 31.841 0 0 0-18.109 5.64c-14.56 10.017-18.243 29.94-8.227 44.5l64.013 93.047c10.017 14.56 29.941 18.243 44.501 8.227 14.56-10.017 18.243-29.941 8.226-44.5l-64.013-93.047c-6.204-9.02-16.214-13.867-26.391-13.867z"  horiz-adv-x="1024" />

    
    <glyph glyph-name="zichanguanli1" unicode="&#58893;" d="M682.688427 415.573333l-50.773334 46.933334-39.253333 35.413333-18.346667 17.066667A85.333333 85.333333 0 0 1 512.02176 539.306667a94.293333 94.293333 0 0 1-61.44-24.32c-2.56-2.56-8.96-8.96-20.053333-18.773334l-39.253334-35.84c-15.786667-13.653333-32.853333-29.44-52.053333-46.506666s-38.4-34.133333-57.6-51.626667L128.02176 226.133333v-199.253333a42.666667 42.666667 0 0 1 17.493333-37.12 78.933333 78.933333 0 0 1 46.933334-12.8h637.44a63.146667 63.146667 0 0 1 45.653333 17.92 54.186667 54.186667 0 0 1 16.64 39.253333v189.866667c-51.2 46.08-101.973333 93.013333-152.746667 139.093333-18.773333 17.493333-37.973333 34.56-56.746666 52.48z m-53.333334-259.84a24.746667 24.746667 0 0 0 16.64-8.106666 34.133333 34.133333 0 0 0 7.253334-17.066667 29.44 29.44 0 0 0-7.253334-17.493333 24.746667 24.746667 0 0 0-16.64-8.106667h-78.506666v-42.666667a33.28 33.28 0 0 0-31.146667-34.56H512.02176a42.666667 42.666667 0 0 0-27.733333 8.533334 35.84 35.84 0 0 0-10.666667 25.6v42.666666H396.395093a22.613333 22.613333 0 0 0-17.066666 8.96 46.933333 46.933333 0 0 0-7.253334 17.92 32.853333 32.853333 0 0 0 7.253334 16.64 23.04 23.04 0 0 0 17.066666 7.253334h78.08v25.173333H396.395093a25.6 25.6 0 0 0-17.066666 7.253333 37.546667 37.546667 0 0 0-7.253334 17.493334 34.56 34.56 0 0 0 7.253334 16.64 27.733333 27.733333 0 0 0 17.066666 6.826666h58.026667l-54.613333 95.146667a74.666667 74.666667 0 0 0-7.68 12.373333 28.586667 28.586667 0 0 0-2.986667 15.786667 42.666667 42.666667 0 0 0 8.106667 18.346667 37.973333 37.973333 0 0 0 23.04 8.96 29.866667 29.866667 0 0 0 17.493333-6.826667 69.973333 69.973333 0 0 0 12.8-12.373333l61.44-110.933334 68.266667 112.213334a49.066667 49.066667 0 0 0 12.8 11.946666 42.666667 42.666667 0 0 0 17.066666 6.4 53.76 53.76 0 0 0 11.52 0 17.066667 17.066667 0 0 0 8.533334-3.84 24.746667 24.746667 0 0 0 6.826666-8.106666 49.92 49.92 0 0 0 3.84-13.653334 33.28 33.28 0 0 0-8.106666-21.76l-62.72-100.693333h59.733333a23.466667 23.466667 0 0 0 16.64-6.826667 31.573333 31.573333 0 0 0 7.68-16.64 35.413333 35.413333 0 0 0-7.68-17.92 22.186667 22.186667 0 0 0-16.64-7.68H554.688427v-24.746666z m371.626667 213.333334l-25.6 25.173333-48.213333 45.653333c-18.773333 17.493333-40.106667 37.546667-62.293334 59.733334l-69.973333 66.986666L725.355093 633.173333c-23.04 21.76-42.666667 42.666667-62.293333 59.733334L614.848427 738.133333c-12.8 12.373333-21.333333 20.053333-25.6 23.466667A105.386667 105.386667 0 0 1 512.02176 791.04a119.04 119.04 0 0 1-83.2-37.546667l-36.266667-33.28-73.813333-68.693333-93.866667-85.333333-94.293333-85.333334-75.093333-70.826666-37.973334-35.413334a56.32 56.32 0 0 1-17.493333-40.533333 52.906667 52.906667 0 0 1 19.626667-42.666667 60.586667 60.586667 0 0 1 42.666666-14.933333 70.826667 70.826667 0 0 1 42.666667 13.226667l30.293333 26.453333 59.733334 55.04 75.093333 68.693333c26.026667 23.466667 52.053333 46.933333 77.226667 70.826667l65.28 59.733333c18.773333 17.493333 31.146667 28.586667 38.4 34.56A100.266667 100.266667 0 0 0 512.02176 631.893333a90.453333 90.453333 0 0 0 64-28.16c4.693333-3.84 15.786667-14.506667 33.706667-31.146666L673.30176 512c24.32-22.613333 50.773333-46.506667 77.653333-72.106667l77.226667-72.106666c20.48-19.2 42.666667-37.973333 62.293333-57.6s27.306667-25.173333 31.146667-28.16a64.426667 64.426667 0 0 1 42.666667-14.08 62.72 62.72 0 0 1 44.8 16.213333 49.066667 49.066667 0 0 1 16.64 40.106667 69.546667 69.546667 0 0 1-23.04 42.666666z"  horiz-adv-x="1025" />

    
    <glyph glyph-name="yuandayu" unicode="&#59116;" d="M786.752 383.68L521.344 649.408a32 32 0 0 0 45.312 45.184l288-288.32a32 32 0 0 0 0-45.248l-288-287.68a32 32 0 0 0-45.248 45.312l265.344 265.024zM530.752 383.68L265.344 649.408a32 32 0 0 0 45.312 45.184l288-288.32a32 32 0 0 0 0-45.248l-288-287.68a32 32 0 0 0-45.248 45.312l265.344 265.024z"  horiz-adv-x="1024" />

    
    <glyph glyph-name="yuanxiaoyu" unicode="&#59117;" d="M237.248 384.32l265.408-265.728a32 32 0 0 0-45.312-45.184l-288 288.32a32 32 0 0 0 0 45.248l288 287.68a32 32 0 0 0 45.248-45.312L237.248 384.32zM493.248 384.32l265.408-265.728a32 32 0 0 0-45.312-45.184l-288 288.32a32 32 0 0 0 0 45.248l288 287.68a32 32 0 0 0 45.248-45.312L493.248 384.32z"  horiz-adv-x="1024" />

    
    <glyph glyph-name="15shuangren" unicode="&#58996;" d="M836.928 13.056c13.44 90.56-16.256 173.888-88.96 250.24 107.712 0 195.328-84.096 195.328-187.392v-11.2c0-53.888-49.024-49.984-106.368-51.648z m-110.848 272.64c-91.648 60.544-36.224 35.2-149.12 70.528 78.912 45.056 105.984 80.448 112.896 209.92a151.872 151.872 0 0 0 152.064-151.488c0-83.456-32-128.96-115.84-128.96zM516.928-39.04H354.688c-152.384 0-273.024 0-273.024 77.12v16c0 147.968 122.432 268.288 273.024 268.288h162.24c150.592 0 273.024-120.32 273.024-268.288v-16c0-77.12-126.464-77.12-273.024-77.12z m-88.96 381.888c-119.296 0-216.32 95.36-216.32 212.544 0 117.248 97.024 212.608 216.32 212.608 119.36 0 216.32-95.36 216.32-212.608 0-117.12-96.96-212.48-216.32-212.48z"  horiz-adv-x="1024" />

    
    <glyph glyph-name="xiazai1" unicode="&#58889;" d="M512-75.662222C258.275556-75.662222 51.768889 130.844444 51.768889 384S258.275556 843.662222 512 843.662222 972.231111 637.724444 972.231111 384c0-253.155556-206.506667-459.662222-460.231111-459.662222zM901.12 384c0 213.902222-174.648889 388.551111-389.12 388.551111S122.88 598.471111 122.88 384 297.528889-4.551111 512-4.551111s389.12 174.08 389.12 388.551111zM537.031111 120.035556c-2.275556-1.706667-3.982222-2.844444-5.12-3.413334-1.706667-1.706667-3.982222-2.844444-6.826667-4.551111-2.275556-0.568889-4.551111-1.137778-5.688888-1.137778-2.275556-0.568889-4.551111-1.137778-6.826667-1.137777H506.311111c-2.275556 0-5.12 0.568889-8.533333 1.706666-1.706667 1.137778-3.413333 2.275556-3.982222 2.844445-2.275556 1.137778-4.551111 2.844444-6.826667 4.551111L256 347.591111a36.408889 36.408889 0 0 0-10.808889 34.702222c3.413333 12.515556 13.084444 22.755556 25.6 25.6 12.515556 3.413333 26.168889-0.568889 34.702222-9.671111l170.097778-169.528889V637.155556c0 19.342222 15.928889 35.84 35.84 35.84 19.342222 0 35.84-15.928889 35.84-35.84v-406.186667l168.96 168.391111c14.222222 13.084444 35.84 12.515556 49.493333-1.137778s14.222222-35.271111 0.568889-49.493333l-229.262222-228.693333z"  horiz-adv-x="1024" />

    
    <glyph glyph-name="chushaixuanxiang" unicode="&#58630;" d="M512 354.14401869999995l69.68273369-69.68273369a21.09634904 21.09634904 0 1 1 29.85598129 29.85598131L541.88414731 384l69.65456768 69.68273369a21.09634904 21.09634904 0 1 1-29.85598131 29.85598129L512 413.88414731 442.31726631 483.53871499a21.09634904 21.09634904 0 1 1-29.85598129-29.85598131L482.11585269 384 412.46128501 314.31726631000004a21.09634904 21.09634904 0 1 1 29.85598131-29.85598129L512 354.11585269z"  horiz-adv-x="1024" />

    
    <glyph glyph-name="add" unicode="&#58880;" d="M512.277-58.412000000000035c-118.89 0-230.659 46.078-314.73 129.73S67.12 266.33399999999995 67.12 384.778s46.327 229.744 130.398 313.427 195.82 129.73 314.73 129.73 230.659-46.078 314.72-129.73S957.397 503.19 957.397 384.817 911.078 155.03999999999996 826.97 71.35799999999995s-195.8-129.77-314.692-129.77z m0 822.784c-101.972 0-197.809-39.494-269.865-111.222s-111.7-166.997-111.7-268.373 39.653-196.695 111.67-268.335S410.246 5.220000000000027 512.248 5.220000000000027s197.809 39.484 269.865 111.222 111.7 166.998 111.67 268.374c-0.03 101.375-39.654 196.665-111.67 268.303S614.22 764.3720000000001 512.277 764.3720000000001z m222.585-347.8H544.073V607.36c-0.76 17.561-15.613 31.18-33.173 30.419-16.495-0.714-29.704-13.924-30.419-30.419v-190.787H289.703c-17.56-0.761-31.179-15.614-30.419-33.174 0.715-16.494 13.924-29.703 30.42-30.418H480.48v-190.788c0.761-17.56 15.614-31.179 33.174-30.419 16.494 0.715 29.703 13.925 30.418 30.42V352.98h190.788c17.56-0.762 32.413 12.857 33.173 30.418 0.762 17.561-12.858 32.414-30.419 33.174a31.683 31.683 0 0 1-2.753 0z"  horiz-adv-x="1028" />

    
    <glyph glyph-name="shouye" unicode="&#58710;" d="M681.81333333-60.10666666999998h-40.10666666V220.32000000000005c0 30.93333333-34.77333333 61.33333333-70.08 61.33333333H451.52c-35.41333333 0-70.08-30.4-70.08-61.33333333v-280.42666667H341.33333333V220.32000000000005c0 58.02666667 58.13333333 101.44 110.18666667 101.44H571.73333333c52.05333333 0 110.18666667-43.41333333 110.18666667-101.44v-280.42666667zM825.70666667-80.15999999999997h-628.26666667c-48.74666667 0-88.32 44.90666667-88.32 100.16000001V520.8h40.10666667v-500.79999999c0-32.53333333 22.08-60.05333333 48.21333333-60.05333334h628.26666667c26.13333333 0 48.21333333 27.52 48.21333333 60.05333334V520.8h40.10666667v-500.79999999c0-55.14666667-39.68-100.16-88.32-100.16000001zM972.26666667 434.08c-4.48 0-8.96 1.49333333-12.69333334 4.58666668L538.88 785.76c-27.30666667 22.18666667-27.30666667 22.18666667-54.72-0.10666667L63.57333333 438.66666668c-8.53333333-7.04-21.12-5.76-28.16 2.66666666-7.04 8.53333333-5.86666667 21.12 2.66666667 28.15999999L458.77333333 816.69333334c43.94666667 35.73333333 61.65333333 35.73333333 105.49333334 0.10666667L985.06666667 469.6c8.53333333-7.04 9.70666667-19.62666667 2.66666666-28.15999999-3.94666667-4.90666667-9.70666667-7.36-15.46666666-7.36000001z"  horiz-adv-x="1024" />

    
    <glyph glyph-name="gengduo" unicode="&#58883;" d="M66.488889 684.218182h891.022222c28.198788 0 50.980202 22.238384 50.980202 49.648485 0 27.397172-22.768485 49.648485-50.980202 49.648485H66.488889C38.341818 783.515152 15.508687 761.276768 15.508687 733.866667s22.833131-49.648485 50.980202-49.648485z m891.009293-248.242424H66.488889C38.277172 435.975758 15.508687 413.737374 15.508687 386.327273s22.768485-49.648485 50.980202-49.648485h891.022222c28.198788 0 50.980202 22.238384 50.980202 49.648485-0.012929 27.410101-22.923636 49.648485-50.993131 49.648485z m0-351.63798H66.488889c-28.134141 0-50.980202-22.238384-50.980202-49.648485s22.833131-49.648485 50.980202-49.648485h891.022222c28.198788 0 50.980202 22.238384 50.980202 49.648485-0.012929 27.397172-22.781414 49.648485-50.993131 49.648485z m0 0"  horiz-adv-x="1024" />

    
    <glyph glyph-name="gongyu1" unicode="&#58899;" d="M941.018-14.378h-31.023V574.54c0 81.067-46.342 115.92-75.322 121.664l-198.647 57.96V817.87c0 11.618-5.744 17.363-11.617 23.235-5.745 5.745-17.362 5.745-23.235 5.745L199.668 736.802s-69.577-17.363-69.577-110.047v-641.006H99.323c-17.362 0-28.98-11.617-28.98-28.98s11.618-28.98 28.98-28.98h841.695c17.362 0 28.98 11.618 28.98 28.98s-11.49 28.853-28.98 28.853z m-362.824 0H188.178V626.755c0 40.597 23.235 52.087 28.98 52.087l360.909 98.557v-791.777z m273.97 0H636.025V696.204l181.285-57.96h5.744c5.745 0 28.98-5.744 28.98-63.704v-588.918zM356.185 543.134c0-14.681-11.873-26.554-26.554-26.554h-53.109c-14.681 0-26.554 11.873-26.554 26.554v53.109c0 14.681 11.873 26.554 26.554 26.554h53.109c14.681 0 26.554-11.873 26.554-26.554v-53.109z m0-172.73c0-14.682-11.873-26.555-26.554-26.555h-53.109c-14.681 0-26.554 11.873-26.554 26.555V423.64c0 14.681 11.873 26.554 26.554 26.554h53.109c14.681 0 26.554-11.873 26.554-26.554v-53.236z m0-172.603c0-14.682-11.873-26.555-26.554-26.555h-53.109c-14.681 0-26.554 11.873-26.554 26.555v53.108c0 14.682 11.873 26.555 26.554 26.555h53.109c14.681 0 26.554-11.873 26.554-26.555v-53.108z m172.603 345.333c0-14.681-11.873-26.554-26.554-26.554h-53.109c-14.681 0-26.554 11.873-26.554 26.554v53.109c0 14.681 11.873 26.554 26.554 26.554h53.109c14.681 0 26.554-11.873 26.554-26.554v-53.109z m0-172.73c0-14.682-11.873-26.555-26.554-26.555h-53.109c-14.681 0-26.554 11.873-26.554 26.555V423.64c0 14.681 11.873 26.554 26.554 26.554h53.109c14.681 0 26.554-11.873 26.554-26.554v-53.236z m0-172.603c0-14.682-11.873-26.555-26.554-26.555h-53.109c-14.681 0-26.554 11.873-26.554 26.555v53.108c0 14.682 11.873 26.555 26.554 26.555h53.109c14.681 0 26.554-11.873 26.554-26.555v-53.108z m265.67 292.225c0-14.682-11.872-26.555-26.554-26.555h-53.108c-14.682 0-26.555 11.873-26.555 26.555v53.108c0 14.682 11.873 26.555 26.555 26.555h53.108c14.682 0 26.555-11.873 26.555-26.555v-53.108z m0-172.73c0-14.682-11.872-26.555-26.554-26.555h-53.108c-14.682 0-26.555 11.873-26.555 26.554v53.109c0 14.681 11.873 26.554 26.555 26.554h53.108c14.682 0 26.555-11.873 26.555-26.554v-53.109z m0-172.604c0-14.681-11.872-26.554-26.554-26.554h-53.108c-14.682 0-26.555 11.873-26.555 26.554v53.109c0 14.681 11.873 26.554 26.555 26.554h53.108c14.682 0 26.555-11.873 26.555-26.554v-53.109z"  horiz-adv-x="1024" />

    
    <glyph glyph-name="sub-add" unicode="&#58634;" d="M512.31516445-119.36654222000004c-135.2704 0-262.43868445 52.42652445-358.0928 147.60391111S5.82542222 250.12224000000003 5.82542222 384.88519111s52.70983111 261.39761778 148.36394667 356.61027556 222.79964445 147.60391111 358.0928 147.60391111 262.43868445-52.42652445 358.08142222-147.60391111S1018.76280889 519.61173333 1018.76280889 384.92956445 966.06208 123.49440000000004 870.36586667 28.282879999999977s-222.77688889-147.64942222-358.04956445-147.64942222z m0 936.14535111c-116.02147555 0-225.06268445-44.93539555-307.0464-126.54592s-127.08977778-190.00547555-127.08977778-305.34883556 45.11630222-223.7952 127.05564444-305.3056S396.22656-46.96746667000002 512.28216889-46.96746667000002s225.06268445 44.92401778 307.0464 126.54592 127.08977778 190.00661333 127.05564444 305.34997334c-0.03413333 115.34222222-45.11744 223.76106667-127.05564444 305.26919111S628.30364445 816.7788088899999 512.31516445 816.7788088899999z m253.25226666-395.71911111H548.49194667V638.1340444499999c-0.86471111 19.98051555-17.76412445 35.47591111-37.74350222 34.61006222-18.76764445-0.81237333-33.79655111-15.84241778-34.61006223-34.61006222v-217.0732089H259.07541333c-19.97937778-0.86584889-35.47477333-17.76526222-34.61006222-37.74464 0.81351111-18.76650667 15.84241778-33.79541333 34.6112-34.60892444H476.13724445v-217.07434666c0.86584889-19.97937778 17.76526222-35.47477333 37.74464-34.61006223 18.76650667 0.81351111 33.79541333 15.84355555 34.60892444 34.6112V348.70613332999994h217.07434666c19.97937778-0.86698667 36.87879111 14.62840889 37.74350223 34.60892445 0.86698667 19.98051555-14.62954667 36.87992889-34.61006223 37.74464a36.04821333 36.04821333 0 0 1-3.13230222 0z"  horiz-adv-x="1028" />

    


  </font>
</defs>
</svg>
